<svg xmlns="http://www.w3.org/2000/svg" viewBox="0 0 1376 768" font-family="Segoe UI, Arial, sans-serif">
  <rect width="1376" height="768" fill="#ffffff"/>

  <!-- Barra superior -->
  <rect x="0" y="0" width="1376" height="56" fill="#ffffff"/>
  <line x1="0" y1="56" x2="1376" y2="56" stroke="#e5e7eb" stroke-width="1"/>

  <!-- Logo -->
  <g transform="translate(24,12)">
    <circle cx="16" cy="16" r="15" fill="none" stroke="#1c6fb8" stroke-width="2"/>
    <circle cx="16" cy="16" r="10" fill="none" stroke="#3b8fd1" stroke-width="2"/>
    <circle cx="16" cy="16" r="5" fill="none" stroke="#1c6fb8" stroke-width="2"/>
    <circle cx="16" cy="16" r="1.6" fill="#1c6fb8"/>
  </g>
  <text x="62" y="28" font-size="20" font-weight="700" fill="#15406b">PHIR-IT</text>
  <text x="62" y="40" font-size="7" letter-spacing="1.5" fill="#5b7794">SOLUCIONES TECNOLÓGICAS</text>

  <!-- Navegación -->
  <g font-size="14" fill="#1c6fb8">
    <text x="190" y="33">Inicio</text>
    <text x="248" y="33">Turnos ▾</text>
    <text x="330" y="33">Imágenes</text>
    <text x="416" y="33">Estudios ▾</text>
    <text x="506" y="33">Facturación ▾</text>
    <text x="616" y="33">Descargas ▾</text>
    <text x="716" y="33">Reportes ▾</text>
    <text x="806" y="33">Administración ▾</text>
  </g>

  <!-- Botones derecha -->
  <rect x="1170" y="14" width="34" height="26" rx="5" fill="#6d28d9"/>
  <rect x="1212" y="14" width="78" height="26" rx="5" fill="#475569"/>
  <text x="1224" y="31" font-size="12" fill="#ffffff">PHIR IT</text>
  <rect x="1298" y="14" width="54" height="26" rx="5" fill="#dc2626"/>
  <text x="1308" y="31" font-size="12" fill="#ffffff">Salir</text>

  <!-- Encabezado de la pantalla -->
  <text x="24" y="100" font-size="26" font-weight="700" fill="#1f2937">Lista de Trabajo</text>
  <text x="24" y="122" font-size="12" fill="#6b7280">Registros: 348 - Página: 1 - Se actualizará en: 199 segundos</text>

  <!-- Botones de acción -->
  <g font-size="12" fill="#ffffff">
    <rect x="930" y="86" width="74" height="26" rx="5" fill="#16a34a"/>
    <text x="948" y="103">Excel</text>
    <rect x="1012" y="86" width="64" height="26" rx="5" fill="#dc2626"/>
    <text x="1028" y="103">Pdf</text>
    <rect x="1084" y="86" width="98" height="26" rx="5" fill="#2563eb"/>
    <text x="1098" y="103">Actualizar</text>
    <rect x="1190" y="86" width="74" height="26" rx="5" fill="#2563eb"/>
    <text x="1206" y="103">Filtros</text>
  </g>

  <!-- Marco de la tabla -->
  <rect x="24" y="132" width="1328" height="560" rx="8" fill="#ffffff" stroke="#e5e7eb" stroke-width="1"/>

  <!-- Cabecera de columnas -->
  <g font-size="13" font-weight="700" fill="#374151">
    <text x="48" y="170">Hora</text>
    <text x="130" y="170">Paciente</text>
    <text x="470" y="170">Modalidad</text>
    <text x="660" y="170">Servicio</text>
    <text x="900" y="170">Estado</text>
    <text x="1130" y="170">Imágen</text>
  </g>
  <line x1="40" y1="184" x2="1336" y2="184" stroke="#eef2f7" stroke-width="1"/>

  <!-- Filas -->
  <g font-size="13">
    <!-- Fila 1 -->
    <text x="48" y="216" fill="#374151">08:00</text>
    <text x="130" y="216" font-weight="700" fill="#1c6fb8">Paciente XXXXXX</text>
    <rect x="470" y="202" width="40" height="20" rx="4" fill="#e0f2fe"/><text x="478" y="216" font-size="11" fill="#0369a1">CT</text>
    <text x="660" y="216" fill="#4b5563">Tomografía</text>
    <rect x="900" y="202" width="78" height="20" rx="10" fill="#fef9c3"/><text x="912" y="216" font-size="11" fill="#92660a">En espera</text>
    <rect x="1130" y="202" width="26" height="20" rx="4" fill="#16a34a"/><rect x="1162" y="202" width="34" height="20" rx="4" fill="#475569"/>
    <line x1="40" y1="236" x2="1336" y2="236" stroke="#eef2f7" stroke-width="1"/>

    <!-- Fila 2 -->
    <text x="48" y="268" fill="#374151">08:30</text>
    <text x="130" y="268" font-weight="700" fill="#1c6fb8">Paciente XXXXXX</text>
    <rect x="470" y="254" width="40" height="20" rx="4" fill="#ede9fe"/><text x="478" y="268" font-size="11" fill="#6d28d9">RM</text>
    <text x="660" y="268" fill="#4b5563">Resonancia</text>
    <rect x="900" y="254" width="74" height="20" rx="10" fill="#dbeafe"/><text x="912" y="268" font-size="11" fill="#1d4ed8">En curso</text>
    <rect x="1130" y="254" width="26" height="20" rx="4" fill="#16a34a"/><rect x="1162" y="254" width="34" height="20" rx="4" fill="#475569"/>
    <line x1="40" y1="288" x2="1336" y2="288" stroke="#eef2f7" stroke-width="1"/>

    <!-- Fila 3 -->
    <text x="48" y="320" fill="#374151">09:00</text>
    <text x="130" y="320" font-weight="700" fill="#1c6fb8">Paciente XXXXXX</text>
    <rect x="470" y="306" width="40" height="20" rx="4" fill="#dcfce7"/><text x="478" y="320" font-size="11" fill="#15803d">RX</text>
    <text x="660" y="320" fill="#4b5563">Radiografía</text>
    <rect x="900" y="306" width="84" height="20" rx="10" fill="#dcfce7"/><text x="912" y="320" font-size="11" fill="#15803d">Finalizado</text>
    <rect x="1130" y="306" width="26" height="20" rx="4" fill="#16a34a"/><rect x="1162" y="306" width="34" height="20" rx="4" fill="#475569"/>
    <line x1="40" y1="340" x2="1336" y2="340" stroke="#eef2f7" stroke-width="1"/>

    <!-- Fila 4 -->
    <text x="48" y="372" fill="#374151">09:30</text>
    <text x="130" y="372" font-weight="700" fill="#1c6fb8">Paciente XXXXXX</text>
    <rect x="470" y="358" width="40" height="20" rx="4" fill="#e0f2fe"/><text x="478" y="372" font-size="11" fill="#0369a1">CT</text>
    <text x="660" y="372" fill="#4b5563">Tomografía</text>
    <rect x="900" y="358" width="78" height="20" rx="10" fill="#fef9c3"/><text x="912" y="372" font-size="11" fill="#92660a">En espera</text>
    <rect x="1130" y="358" width="26" height="20" rx="4" fill="#16a34a"/><rect x="1162" y="358" width="34" height="20" rx="4" fill="#475569"/>
    <line x1="40" y1="392" x2="1336" y2="392" stroke="#eef2f7" stroke-width="1"/>

    <!-- Fila 5 -->
    <text x="48" y="424" fill="#374151">10:00</text>
    <text x="130" y="424" font-weight="700" fill="#1c6fb8">Paciente XXXXXX</text>
    <rect x="470" y="410" width="40" height="20" rx="4" fill="#dcfce7"/><text x="478" y="424" font-size="11" fill="#15803d">RX</text>
    <text x="660" y="424" fill="#4b5563">Radiografía</text>
    <rect x="900" y="410" width="74" height="20" rx="10" fill="#dbeafe"/><text x="912" y="424" font-size="11" fill="#1d4ed8">En curso</text>
    <rect x="1130" y="410" width="26" height="20" rx="4" fill="#16a34a"/><rect x="1162" y="410" width="34" height="20" rx="4" fill="#475569"/>
    <line x1="40" y1="444" x2="1336" y2="444" stroke="#eef2f7" stroke-width="1"/>

    <!-- Fila 6 -->
    <text x="48" y="476" fill="#374151">10:30</text>
    <text x="130" y="476" font-weight="700" fill="#1c6fb8">Paciente XXXXXX</text>
    <rect x="470" y="462" width="40" height="20" rx="4" fill="#ede9fe"/><text x="478" y="476" font-size="11" fill="#6d28d9">RM</text>
    <text x="660" y="476" fill="#4b5563">Resonancia</text>
    <rect x="900" y="462" width="84" height="20" rx="10" fill="#dcfce7"/><text x="912" y="476" font-size="11" fill="#15803d">Finalizado</text>
    <rect x="1130" y="462" width="26" height="20" rx="4" fill="#16a34a"/><rect x="1162" y="462" width="34" height="20" rx="4" fill="#475569"/>
    <line x1="40" y1="496" x2="1336" y2="496" stroke="#eef2f7" stroke-width="1"/>

    <!-- Fila 7 -->
    <text x="48" y="528" fill="#374151">11:00</text>
    <text x="130" y="528" font-weight="700" fill="#1c6fb8">Paciente XXXXXX</text>
    <rect x="470" y="514" width="40" height="20" rx="4" fill="#e0f2fe"/><text x="478" y="528" font-size="11" fill="#0369a1">CT</text>
    <text x="660" y="528" fill="#4b5563">Tomografía</text>
    <rect x="900" y="514" width="78" height="20" rx="10" fill="#fef9c3"/><text x="912" y="528" font-size="11" fill="#92660a">En espera</text>
    <rect x="1130" y="514" width="26" height="20" rx="4" fill="#16a34a"/><rect x="1162" y="514" width="34" height="20" rx="4" fill="#475569"/>
    <line x1="40" y1="548" x2="1336" y2="548" stroke="#eef2f7" stroke-width="1"/>

    <!-- Fila 8 -->
    <text x="48" y="580" fill="#374151">11:30</text>
    <text x="130" y="580" font-weight="700" fill="#1c6fb8">Paciente XXXXXX</text>
    <rect x="470" y="566" width="40" height="20" rx="4" fill="#dcfce7"/><text x="478" y="580" font-size="11" fill="#15803d">RX</text>
    <text x="660" y="580" fill="#4b5563">Radiografía</text>
    <rect x="900" y="566" width="74" height="20" rx="10" fill="#dbeafe"/><text x="912" y="580" font-size="11" fill="#1d4ed8">En curso</text>
    <rect x="1130" y="566" width="26" height="20" rx="4" fill="#16a34a"/><rect x="1162" y="566" width="34" height="20" rx="4" fill="#475569"/>
    <line x1="40" y1="600" x2="1336" y2="600" stroke="#eef2f7" stroke-width="1"/>

    <!-- Fila 9 -->
    <text x="48" y="632" fill="#374151">12:00</text>
    <text x="130" y="632" font-weight="700" fill="#1c6fb8">Paciente XXXXXX</text>
    <rect x="470" y="618" width="40" height="20" rx="4" fill="#ede9fe"/><text x="478" y="632" font-size="11" fill="#6d28d9">RM</text>
    <text x="660" y="632" fill="#4b5563">Resonancia</text>
    <rect x="900" y="618" width="84" height="20" rx="10" fill="#dcfce7"/><text x="912" y="632" font-size="11" fill="#15803d">Finalizado</text>
    <rect x="1130" y="618" width="26" height="20" rx="4" fill="#16a34a"/><rect x="1162" y="618" width="34" height="20" rx="4" fill="#475569"/>
  </g>

  <!-- Paginación -->
  <g font-size="13" fill="#1c6fb8">
    <rect x="1066" y="656" width="64" height="24" rx="4" fill="#f1f5f9"/><text x="1078" y="672">Primera</text>
    <rect x="1136" y="656" width="24" height="24" rx="4" fill="#1c6fb8"/><text x="1144" y="672" fill="#ffffff">1</text>
    <text x="1172" y="672">2</text><text x="1196" y="672">3</text><text x="1220" y="672">4</text><text x="1244" y="672">5</text>
    <rect x="1268" y="656" width="60" height="24" rx="4" fill="#f1f5f9"/><text x="1280" y="672">Última</text>
  </g>

  <!-- Pie -->
  <text x="688" y="726" text-anchor="middle" font-size="12" font-weight="600" fill="#475569">PHIR WorkList – powered by PHIR IT © 2026</text>
</svg>
